#!OML:ASF F:\VICON\USERDATA\INSTALL\rory3\rory3.ASF
:FULLY-SPECIFIED
:DEGREES
438
root -14.4696 18.1347 16.3 -3.83119 -45.6494 -0.329967
lowerback 10.0507 -0.134329 -0.0320113
upperback 0.881745 -0.105491 1.98219
thorax -4.71571 -0.0425602 2.09997
lowerneck -20.6104 -4.32037 -9.01491
upperneck 26.9333 -4.98816 5.67752
head 12.7963 -2.44374 2.84637
rclavicle -2.61402e-014 2.38542e-015
rhumerus -40.4634 -17.0036 -75.3093
rradius 25.9524
rwrist 13.5386
rhand -11.0854 8.70209
rfingers 7.12502
rthumb 14.9382 -20.7392
lclavicle -2.61402e-014 2.38542e-015
lhumerus -34.4216 1.25986 85.281
lradius 32.4772
lwrist -10.2963
lhand -13.6952 25.6407
lfingers 7.12502
lthumb 12.423 55.2515
rfemur -11.8628 1.18396 25.2848
rtibia 29.2217
rfoot -10.4544 -5.02068
rtoes 12.0798
lfemur -1.52205 -1.64468 -18.4987
ltibia 51.4989
lfoot 11.0465 -16.1854
ltoes 3.27817
439
root -14.5701 18.1289 16.3765 -3.83975 -45.8933 -0.584803
lowerback 10.2355 0.0321792 0.146306
upperback 0.870843 0.138751 1.99924
thorax -4.83891 0.0750609 1.9842
lowerneck -20.3692 -4.34317 -9.00824
upperneck 26.8764 -5.0568 5.71168
head 12.7309 -2.47276 2.84756
rclavicle -6.03808e-014 7.95139e-015
rhumerus -40.1056 -16.7977 -75.4341
rradius 25.7822
rwrist 13.8543
rhand -10.9794 8.75266
rfingers 7.12502
rthumb 15.0403 -20.681
lclavicle -6.03808e-014 7.95139e-015
lhumerus -34.6661 1.01987 85.4708
lradius 32.3594
lwrist -10.6631
lhand -13.5256 25.4368
lfingers 7.12502
lthumb 12.5865 55.0376
rfemur -11.2041 1.34018 25.586
rtibia 29.2785
rfoot -10.9 -5.04766
rtoes 12.7085
lfemur -2.33828 -1.25315 -18.1484
ltibia 52.5708
lfoot 9.01334 -15.8924
ltoes 0.344244
440
root -14.6667 18.1231 16.4498 -3.75225 -46.1041 -0.835261
lowerback 10.356 0.187004 0.346366
upperback 0.840835 0.370012 2.0062
thorax -4.94426 0.185519 1.846
lowerneck -20.251 -4.35478 -8.96222
upperneck 26.8823 -5.09319 5.68218
head 12.71 -2.49033 2.82304
rclavicle -4.99198e-014 3.18055e-015
rhumerus -39.6243 -16.7204 -75.4734
rradius 25.4426
rwrist 14.3622
rhand -10.9324 9.008
rfingers 7.12502
rthumb 15.0856 -20.4223
lclavicle -4.99198e-014 3.18055e-015
lhumerus -34.841 0.713903 85.6814
lradius 32.1607
lwrist -10.9576
lhand -13.7655 24.999
lfingers 7.12502
lthumb 12.3552 54.614
rfemur -10.6925 1.42675 25.8893
rtibia 29.3309
rfoot -11.2656 -5.06838
rtoes 12.601
lfemur -3.23807 -0.855945 -17.8102
ltibia 53.486
lfoot 7.12255 -15.309
ltoes -2.01864
441
root -14.7611 18.1186 16.52 -3.8368 -46.1769 -0.832395
lowerback 10.5329 0.280048 0.309706
upperback 0.792774 0.492283 1.98396
thorax -5.09729 0.247187 1.82606
lowerneck -20.1144 -4.33891 -9.00406
upperneck 26.884 -5.10594 5.79489
head 12.6885 -2.48829 2.8731
rclavicle -4.79071e-014 5.56597e-015
rhumerus -39.1493 -16.506 -75.5591
rradius 25.1593
rwrist 14.8912
rhand -10.8561 9.23978
rfingers 7.12502
rthumb 15.1592 -20.185
lclavicle -4.79071e-014 5.56597e-015
lhumerus -35.0941 0.422326 85.8836
lradius 32.031
lwrist -10.9744
lhand -14.2417 24.6973
lfingers 7.12502
lthumb 11.8961 54.3393
rfemur -10.1952 1.56595 25.9978
rtibia 29.3813
rfoot -11.5977 -5.19937
rtoes 12.7319
lfemur -4.194 -0.617253 -17.6912
ltibia 54.2433
lfoot 5.57459 -14.382
ltoes -4.03185
442
root -14.857 18.116 16.6007 -3.86574 -46.4699 -0.882395
lowerback 10.5897 0.379507 0.334939
upperback 0.749099 0.628549 1.96429
thorax -5.17844 0.314132 1.77112
lowerneck -19.7933 -4.23162 -8.94066
upperneck 26.7894 -5.01839 5.8494
head 12.5758 -2.44144 2.89988
rclavicle -5.50137e-014 -6.36111e-015
rhumerus -38.6974 -16.0262 -75.7977
rradius 25.007
rwrist 15.1779
rhand -10.8764 9.36245
rfingers 7.12502
rthumb 15.1395 -20.0638
lclavicle -5.50137e-014 -6.36111e-015
lhumerus -35.3931 0.494043 85.9064
lradius 31.9111
lwrist -11.2223
lhand -14.4761 25.0076
lfingers 7.12502
lthumb 11.67 54.6626
rfemur -9.6998 1.75269 26.1185
rtibia 29.4311
rfoot -11.9502 -5.17368
rtoes 12.8597
lfemur -5.09692 -0.266355 -17.5866
ltibia 54.8611
lfoot 4.17958 -13.2287
ltoes -6.25752
443
root -14.9521 18.1128 16.6759 -3.91618 -46.763 -0.833488
lowerback 10.6065 0.50724 0.249786
upperback 0.686097 0.789186 1.93752
thorax -5.25941 0.395805 1.76719
lowerneck -19.4791 -4.14343 -9.05167
upperneck 26.797 -4.95637 6.06862
head 12.5183 -2.40393 3.01712
rclavicle -2.52208e-014 -2.34566e-014
rhumerus -38.26 -15.6666 -75.9672
rradius 24.8996
rwrist 15.461
rhand -10.9927 9.15507
rfingers 7.12502
rthumb 15.0275 -20.2796
lclavicle -2.52208e-014 -2.34566e-014
lhumerus -35.6695 0.866683 85.8189
lradius 31.8173
lwrist -11.6565
lhand -14.4898 25.3474
lfingers 7.12502
lthumb 11.6568 55.0031
rfemur -9.27007 1.96559 26.1845
rtibia 29.4737
rfoot -12.3194 -5.22207
rtoes 12.5835
lfemur -6.04204 0.0794445 -17.5417
ltibia 55.3442
lfoot 3.15573 -11.7892
ltoes -6.90875
444
root -15.0423 18.1081 16.7512 -3.98682 -46.9824 -0.737844
lowerback 10.5398 0.595572 0.194384
upperback 0.786754 0.893081 1.86843
thorax -5.11919 0.446615 1.71085
lowerneck -19.7062 -4.06206 -8.97381
upperneck 26.8682 -4.86121 6.122
head 12.583 -2.3428 3.04087
rclavicle 1.08959e-014 1.23246e-014
rhumerus -37.4835 -15.8584 -76.0444
rradius 24.6574
rwrist 16.4319
rhand -11.06 8.94017
rfingers 7.12502
rthumb 14.9627 -20.4993
lclavicle 1.08959e-014 1.23246e-014
lhumerus -35.5949 1.21717 85.6475
lradius 31.6717
lwrist -11.9534
lhand -14.5702 25.3113
lfingers 7.12502
lthumb 11.5793 54.9714
rfemur -8.85583 2.17437 26.2148
rtibia 29.4999
rfoot -12.6423 -5.3111
rtoes 12.2751
lfemur -7.02705 0.329731 -17.518
ltibia 55.6899
lfoot 2.49844 -10.2986
ltoes -6.02084
445
root -15.1327 18.103 16.8327 -4.1045 -47.158 -0.682891
lowerback 10.4189 0.606324 0.256092
upperback 1.01673 0.899608 1.72175
thorax -4.80741 0.444932 1.52259
lowerneck -20.2398 -3.95289 -8.54156
upperneck 27.0056 -4.74977 5.9451
head 12.7185 -2.26249 2.91707
rclavicle -1.48343e-014 -3.97569e-015
rhumerus -36.4852 -15.9959 -76.429
rradius 24.4381
rwrist 17.2566
rhand -11.014 8.66032
rfingers 7.12502
rthumb 15.007 -20.7759
lclavicle -1.48343e-014 -3.97569e-015
lhumerus -35.4123 1.62567 85.2895
lradius 31.557
lwrist -12.0126
lhand -14.6025 25.0308
lfingers 7.12502
lthumb 11.5481 54.6926
rfemur -8.34981 2.18531 26.2495
rtibia 29.542
rfoot -12.9545 -5.29553
rtoes 11.3592
lfemur -7.88864 0.490185 -17.4671
ltibia 55.8921
lfoot 1.83549 -8.94232
ltoes -5.01954
446
root -15.2249 18.0983 16.9148 -4.30991 -47.2805 -0.523855
lowerback 10.362 0.691049 0.301242
upperback 1.00494 1.01235 1.61623
thorax -4.78805 0.499079 1.37108
lowerneck -19.93 -3.94955 -8.58353
upperneck 27.0068 -4.76174 5.94323
head 12.6578 -2.27903 2.92337
rclavicle 5.24046e-014 1.19271e-014
rhumerus -36.0937 -15.7506 -76.6204
rradius 24.4304
rwrist 17.2268
rhand -11.0639 8.44554
rfingers 7.12502
rthumb 14.9589 -20.9942
lclavicle 5.24046e-014 1.19271e-014
lhumerus -35.7541 2.10068 85.1438
lradius 31.4427
lwrist -12.1301
lhand -14.7592 24.7946
lfingers 7.12502
lthumb 11.397 54.4649
rfemur -7.84125 2.0641 26.1905
rtibia 29.599
rfoot -13.2782 -5.25516
rtoes 10.3328
lfemur -8.65403 0.484897 -17.5509
ltibia 55.9776
lfoot 0.900029 -7.68018
ltoes -5.75702
447
root -15.317 18.096 16.9912 -4.42523 -47.3626 -0.374895
lowerback 10.3832 0.817377 0.256738
upperback 0.813644 1.17991 1.59568
thorax -5.0044 0.584231 1.34955
lowerneck -19.3286 -3.96483 -8.83732
upperneck 27.0475 -4.77076 5.96777
head 12.5605 -2.31978 2.97917
rclavicle -1.35174e-014 -1.55052e-014
rhumerus -36.0586 -15.2874 -76.647
rradius 24.7195
rwrist 16.7714
rhand -11.0514 8.05336
rfingers 7.12502
rthumb 14.971 -21.3855
lclavicle -1.35174e-014 -1.55052e-014
lhumerus -36.3637 2.47781 85.1891
lradius 31.4235
lwrist -12.1539
lhand -15.0049 25.0472
lfingers 7.12502
lthumb 11.1601 54.7304
rfemur -7.4164 2.09094 26.1419
rtibia 29.6656
rfoot -13.6934 -5.28322
rtoes 9.94409
lfemur -9.51518 0.410939 -17.6152
ltibia 55.9497
lfoot 0.0815559 -6.53214
ltoes -6.88534
448
root -15.4062 18.0896 17.0639 -4.22253 -47.4884 -0.586933
lowerback 10.3261 0.85927 0.381029
upperback 0.848086 1.24698 1.56892
thorax -4.93464 0.614149 1.24262
lowerneck -19.5473 -3.88613 -8.5924
upperneck 27.215 -4.68573 5.83322
head 12.6536 -2.27223 2.90146
rclavicle 1.963e-014 -3.97569e-015
rhumerus -35.6387 -14.441 -77.2272
rradius 25.432
rwrist 15.8395
rhand -11.0129 7.5412
rfingers 7.12502
rthumb 15.008 -21.8949
lclavicle 1.963e-014 -3.97569e-015
lhumerus -36.4582 2.81286 84.9876
lradius 31.3842
lwrist -11.9069
lhand -15.4169 25.0859
lfingers 7.12502
lthumb 10.7626 54.7902
rfemur -7.07209 2.32159 26.3838
rtibia 29.7735
rfoot -14.1496 -5.40728
rtoes 10.0507
lfemur -10.4551 0.484328 -17.3839
ltibia 55.8112
lfoot -0.742567 -5.47588
ltoes -8.04749
